<?xml version="1.0" encoding="UTF-8"?>
<svg xmlns="http://www.w3.org/2000/svg" xmlns:xlink="http://www.w3.org/1999/xlink" width="432pt" height="288pt" viewBox="0 0 432 288">
<defs>
<g>
<g id="glyph-0-0">
<path d="M 0.28125 0 L 0.28125 -6.3125 L 5.296875 -6.3125 L 5.296875 0 Z M 4.5 -0.796875 L 4.5 -5.515625 L 1.078125 -5.515625 L 1.078125 -0.796875 Z M 4.5 -0.796875 "/>
</g>
<g id="glyph-0-1">
<path d="M 2.90625 -2.171875 L 2.90625 -4.96875 L 0.9375 -2.171875 Z M 2.921875 0 L 2.921875 -1.5 L 0.21875 -1.5 L 0.21875 -2.265625 L 3.046875 -6.171875 L 3.6875 -6.171875 L 3.6875 -2.171875 L 4.59375 -2.171875 L 4.59375 -1.5 L 3.6875 -1.5 L 3.6875 0 Z M 2.921875 0 "/>
</g>
<g id="glyph-0-2">
<path d="M 0.75 -0.9375 L 1.65625 -0.9375 L 1.65625 0 L 0.75 0 Z M 0.75 -0.9375 "/>
</g>
<g id="glyph-0-3">
<path d="M 1.09375 -1.5625 C 1.132812 -1.125 1.335938 -0.820312 1.703125 -0.65625 C 1.878906 -0.570312 2.09375 -0.53125 2.34375 -0.53125 C 2.800781 -0.53125 3.140625 -0.675781 3.359375 -0.96875 C 3.578125 -1.257812 3.6875 -1.582031 3.6875 -1.9375 C 3.6875 -2.363281 3.554688 -2.691406 3.296875 -2.921875 C 3.035156 -3.160156 2.71875 -3.28125 2.34375 -3.28125 C 2.082031 -3.28125 1.851562 -3.226562 1.65625 -3.125 C 1.46875 -3.019531 1.304688 -2.878906 1.171875 -2.703125 L 0.5 -2.734375 L 0.96875 -6.046875 L 4.171875 -6.046875 L 4.171875 -5.296875 L 1.5625 -5.296875 L 1.296875 -3.59375 C 1.429688 -3.695312 1.566406 -3.773438 1.703125 -3.828125 C 1.929688 -3.929688 2.195312 -3.984375 2.5 -3.984375 C 3.0625 -3.984375 3.535156 -3.800781 3.921875 -3.4375 C 4.316406 -3.070312 4.515625 -2.609375 4.515625 -2.046875 C 4.515625 -1.460938 4.332031 -0.945312 3.96875 -0.5 C 3.613281 -0.0625 3.046875 0.15625 2.265625 0.15625 C 1.753906 0.15625 1.304688 0.0117188 0.921875 -0.265625 C 0.546875 -0.546875 0.332031 -0.976562 0.28125 -1.5625 Z M 1.09375 -1.5625 "/>
</g>
<g id="glyph-0-4">
<path d="M 2.375 -6.15625 C 3.175781 -6.15625 3.753906 -5.828125 4.109375 -5.171875 C 4.378906 -4.660156 4.515625 -3.960938 4.515625 -3.078125 C 4.515625 -2.242188 4.390625 -1.554688 4.140625 -1.015625 C 3.785156 -0.222656 3.195312 0.171875 2.375 0.171875 C 1.632812 0.171875 1.082031 -0.148438 0.71875 -0.796875 C 0.425781 -1.328125 0.28125 -2.046875 0.28125 -2.953125 C 0.28125 -3.648438 0.367188 -4.25 0.546875 -4.75 C 0.878906 -5.6875 1.488281 -6.15625 2.375 -6.15625 Z M 2.375 -0.53125 C 2.769531 -0.53125 3.085938 -0.707031 3.328125 -1.0625 C 3.566406 -1.425781 3.6875 -2.085938 3.6875 -3.046875 C 3.6875 -3.753906 3.597656 -4.332031 3.421875 -4.78125 C 3.253906 -5.226562 2.921875 -5.453125 2.421875 -5.453125 C 1.972656 -5.453125 1.640625 -5.238281 1.421875 -4.8125 C 1.210938 -4.382812 1.109375 -3.753906 1.109375 -2.921875 C 1.109375 -2.296875 1.175781 -1.789062 1.3125 -1.40625 C 1.519531 -0.820312 1.875 -0.53125 2.375 -0.53125 Z M 2.375 -0.53125 "/>
</g>
<g id="glyph-0-5">
<path d="M 2.578125 -6.171875 C 3.265625 -6.171875 3.742188 -5.992188 4.015625 -5.640625 C 4.285156 -5.285156 4.421875 -4.921875 4.421875 -4.546875 L 3.65625 -4.546875 C 3.601562 -4.785156 3.53125 -4.972656 3.4375 -5.109375 C 3.25 -5.367188 2.960938 -5.5 2.578125 -5.5 C 2.148438 -5.5 1.804688 -5.296875 1.546875 -4.890625 C 1.296875 -4.492188 1.15625 -3.925781 1.125 -3.1875 C 1.300781 -3.445312 1.523438 -3.640625 1.796875 -3.765625 C 2.046875 -3.878906 2.320312 -3.9375 2.625 -3.9375 C 3.132812 -3.9375 3.582031 -3.769531 3.96875 -3.4375 C 4.351562 -3.113281 4.546875 -2.625 4.546875 -1.96875 C 4.546875 -1.414062 4.363281 -0.921875 4 -0.484375 C 3.632812 -0.0546875 3.117188 0.15625 2.453125 0.15625 C 1.867188 0.15625 1.367188 -0.0625 0.953125 -0.5 C 0.535156 -0.9375 0.328125 -1.671875 0.328125 -2.703125 C 0.328125 -3.460938 0.421875 -4.109375 0.609375 -4.640625 C 0.960938 -5.660156 1.617188 -6.171875 2.578125 -6.171875 Z M 2.515625 -0.53125 C 2.921875 -0.53125 3.222656 -0.664062 3.421875 -0.9375 C 3.628906 -1.207031 3.734375 -1.53125 3.734375 -1.90625 C 3.734375 -2.21875 3.640625 -2.515625 3.453125 -2.796875 C 3.273438 -3.085938 2.953125 -3.234375 2.484375 -3.234375 C 2.148438 -3.234375 1.859375 -3.125 1.609375 -2.90625 C 1.359375 -2.6875 1.234375 -2.351562 1.234375 -1.90625 C 1.234375 -1.519531 1.34375 -1.191406 1.5625 -0.921875 C 1.789062 -0.660156 2.109375 -0.53125 2.515625 -0.53125 Z M 2.515625 -0.53125 "/>
</g>
<g id="glyph-0-6">
<path d="M 0.28125 0 C 0.300781 -0.53125 0.40625 -0.988281 0.59375 -1.375 C 0.789062 -1.769531 1.164062 -2.128906 1.71875 -2.453125 L 2.546875 -2.921875 C 2.910156 -3.140625 3.164062 -3.328125 3.3125 -3.484375 C 3.550781 -3.710938 3.671875 -3.984375 3.671875 -4.296875 C 3.671875 -4.648438 3.5625 -4.929688 3.34375 -5.140625 C 3.132812 -5.359375 2.847656 -5.46875 2.484375 -5.46875 C 1.960938 -5.46875 1.597656 -5.265625 1.390625 -4.859375 C 1.285156 -4.648438 1.226562 -4.351562 1.21875 -3.96875 L 0.421875 -3.96875 C 0.429688 -4.5 0.53125 -4.9375 0.71875 -5.28125 C 1.050781 -5.875 1.644531 -6.171875 2.5 -6.171875 C 3.195312 -6.171875 3.707031 -5.976562 4.03125 -5.59375 C 4.363281 -5.21875 4.53125 -4.796875 4.53125 -4.328125 C 4.53125 -3.835938 4.351562 -3.414062 4 -3.0625 C 3.800781 -2.863281 3.441406 -2.617188 2.921875 -2.328125 L 2.34375 -2 C 2.0625 -1.84375 1.835938 -1.695312 1.671875 -1.5625 C 1.390625 -1.3125 1.210938 -1.035156 1.140625 -0.734375 L 4.5 -0.734375 L 4.5 0 Z M 0.28125 0 "/>
</g>
<g id="glyph-0-7">
<path d="M 2.390625 -3.578125 C 2.734375 -3.578125 3 -3.671875 3.1875 -3.859375 C 3.382812 -4.046875 3.484375 -4.273438 3.484375 -4.546875 C 3.484375 -4.773438 3.390625 -4.984375 3.203125 -5.171875 C 3.015625 -5.359375 2.734375 -5.453125 2.359375 -5.453125 C 1.992188 -5.453125 1.726562 -5.359375 1.5625 -5.171875 C 1.394531 -4.984375 1.3125 -4.757812 1.3125 -4.5 C 1.3125 -4.207031 1.414062 -3.976562 1.625 -3.8125 C 1.84375 -3.65625 2.097656 -3.578125 2.390625 -3.578125 Z M 2.4375 -0.53125 C 2.800781 -0.53125 3.097656 -0.625 3.328125 -0.8125 C 3.566406 -1.007812 3.6875 -1.300781 3.6875 -1.6875 C 3.6875 -2.082031 3.5625 -2.382812 3.3125 -2.59375 C 3.070312 -2.800781 2.765625 -2.90625 2.390625 -2.90625 C 2.015625 -2.90625 1.707031 -2.796875 1.46875 -2.578125 C 1.238281 -2.367188 1.125 -2.078125 1.125 -1.703125 C 1.125 -1.390625 1.226562 -1.113281 1.4375 -0.875 C 1.65625 -0.644531 1.988281 -0.53125 2.4375 -0.53125 Z M 1.34375 -3.28125 C 1.125 -3.375 0.957031 -3.476562 0.84375 -3.59375 C 0.613281 -3.820312 0.5 -4.125 0.5 -4.5 C 0.5 -4.957031 0.664062 -5.347656 1 -5.671875 C 1.332031 -6.003906 1.800781 -6.171875 2.40625 -6.171875 C 3 -6.171875 3.460938 -6.015625 3.796875 -5.703125 C 4.128906 -5.390625 4.296875 -5.023438 4.296875 -4.609375 C 4.296875 -4.222656 4.195312 -3.914062 4 -3.6875 C 3.894531 -3.550781 3.726562 -3.414062 3.5 -3.28125 C 3.757812 -3.164062 3.960938 -3.03125 4.109375 -2.875 C 4.378906 -2.59375 4.515625 -2.222656 4.515625 -1.765625 C 4.515625 -1.222656 4.332031 -0.765625 3.96875 -0.390625 C 3.601562 -0.015625 3.085938 0.171875 2.421875 0.171875 C 1.828125 0.171875 1.320312 0.0078125 0.90625 -0.3125 C 0.488281 -0.632812 0.28125 -1.109375 0.28125 -1.734375 C 0.28125 -2.085938 0.367188 -2.394531 0.546875 -2.65625 C 0.722656 -2.925781 0.988281 -3.132812 1.34375 -3.28125 Z M 1.34375 -3.28125 "/>
</g>
<g id="glyph-0-8">
<path d="M 0.84375 -4.359375 L 0.84375 -4.953125 C 1.394531 -5.003906 1.78125 -5.09375 2 -5.21875 C 2.226562 -5.34375 2.394531 -5.644531 2.5 -6.125 L 3.109375 -6.125 L 3.109375 0 L 2.296875 0 L 2.296875 -4.359375 Z M 0.84375 -4.359375 "/>
</g>
<g id="glyph-1-0">
<path d="M 0.359375 0 L 0.359375 -7.890625 L 6.625 -7.890625 L 6.625 0 Z M 5.625 -0.984375 L 5.625 -6.90625 L 1.34375 -6.90625 L 1.34375 -0.984375 Z M 5.625 -0.984375 "/>
</g>
<g id="glyph-1-1">
<path d="M 4.890625 -3.234375 L 3.6875 -6.71875 L 2.421875 -3.234375 Z M 3.125 -7.890625 L 4.34375 -7.890625 L 7.203125 0 L 6.03125 0 L 5.234375 -2.359375 L 2.109375 -2.359375 L 1.25 0 L 0.15625 0 Z M 3.125 -7.890625 "/>
</g>
<g id="glyph-1-2">
<path d="M 0.703125 -5.75 L 1.625 -5.75 L 1.625 -4.9375 C 1.894531 -5.269531 2.179688 -5.507812 2.484375 -5.65625 C 2.796875 -5.800781 3.132812 -5.875 3.5 -5.875 C 4.320312 -5.875 4.875 -5.59375 5.15625 -5.03125 C 5.3125 -4.71875 5.390625 -4.269531 5.390625 -3.6875 L 5.390625 0 L 4.421875 0 L 4.421875 -3.625 C 4.421875 -3.976562 4.367188 -4.257812 4.265625 -4.46875 C 4.085938 -4.832031 3.773438 -5.015625 3.328125 -5.015625 C 3.097656 -5.015625 2.910156 -4.988281 2.765625 -4.9375 C 2.492188 -4.863281 2.257812 -4.707031 2.0625 -4.46875 C 1.90625 -4.28125 1.800781 -4.082031 1.75 -3.875 C 1.695312 -3.675781 1.671875 -3.390625 1.671875 -3.015625 L 1.671875 0 L 0.703125 0 Z M 2.984375 -5.890625 Z M 2.984375 -5.890625 "/>
</g>
<g id="glyph-1-3">
<path d="M 1.453125 -1.53125 C 1.453125 -1.25 1.550781 -1.023438 1.75 -0.859375 C 1.957031 -0.703125 2.203125 -0.625 2.484375 -0.625 C 2.816406 -0.625 3.144531 -0.703125 3.46875 -0.859375 C 4.007812 -1.117188 4.28125 -1.550781 4.28125 -2.15625 L 4.28125 -2.921875 C 4.15625 -2.847656 4 -2.785156 3.8125 -2.734375 C 3.632812 -2.691406 3.453125 -2.65625 3.265625 -2.625 L 2.6875 -2.5625 C 2.332031 -2.507812 2.066406 -2.4375 1.890625 -2.34375 C 1.597656 -2.164062 1.453125 -1.894531 1.453125 -1.53125 Z M 3.796875 -3.484375 C 4.015625 -3.515625 4.160156 -3.609375 4.234375 -3.765625 C 4.273438 -3.847656 4.296875 -3.972656 4.296875 -4.140625 C 4.296875 -4.460938 4.175781 -4.695312 3.9375 -4.84375 C 3.707031 -5 3.375 -5.078125 2.9375 -5.078125 C 2.4375 -5.078125 2.082031 -4.941406 1.875 -4.671875 C 1.75 -4.515625 1.671875 -4.289062 1.640625 -4 L 0.734375 -4 C 0.753906 -4.707031 0.984375 -5.195312 1.421875 -5.46875 C 1.867188 -5.75 2.382812 -5.890625 2.96875 -5.890625 C 3.644531 -5.890625 4.191406 -5.757812 4.609375 -5.5 C 5.035156 -5.25 5.25 -4.847656 5.25 -4.296875 L 5.25 -0.984375 C 5.25 -0.890625 5.265625 -0.8125 5.296875 -0.75 C 5.335938 -0.6875 5.425781 -0.65625 5.5625 -0.65625 C 5.601562 -0.65625 5.648438 -0.65625 5.703125 -0.65625 C 5.765625 -0.664062 5.820312 -0.675781 5.875 -0.6875 L 5.875 0.03125 C 5.726562 0.0703125 5.613281 0.0976562 5.53125 0.109375 C 5.457031 0.117188 5.351562 0.125 5.21875 0.125 C 4.882812 0.125 4.640625 0.00390625 4.484375 -0.234375 C 4.410156 -0.359375 4.359375 -0.535156 4.328125 -0.765625 C 4.128906 -0.503906 3.84375 -0.28125 3.46875 -0.09375 C 3.101562 0.0898438 2.695312 0.1875 2.25 0.1875 C 1.71875 0.1875 1.28125 0.0234375 0.9375 -0.296875 C 0.601562 -0.617188 0.4375 -1.023438 0.4375 -1.515625 C 0.4375 -2.046875 0.601562 -2.457031 0.9375 -2.75 C 1.269531 -3.039062 1.707031 -3.222656 2.25 -3.296875 Z M 2.984375 -5.890625 Z M 2.984375 -5.890625 "/>
</g>
<g id="glyph-1-4">
<path d="M 0.734375 -7.890625 L 1.703125 -7.890625 L 1.703125 0 L 0.734375 0 Z M 0.734375 -7.890625 "/>
</g>
<g id="glyph-1-5">
<path d="M 4.296875 -5.75 L 5.375 -5.75 C 5.238281 -5.382812 4.9375 -4.546875 4.46875 -3.234375 C 4.113281 -2.242188 3.816406 -1.4375 3.578125 -0.8125 C 3.023438 0.652344 2.632812 1.550781 2.40625 1.875 C 2.175781 2.195312 1.78125 2.359375 1.21875 2.359375 C 1.082031 2.359375 0.976562 2.351562 0.90625 2.34375 C 0.832031 2.332031 0.742188 2.3125 0.640625 2.28125 L 0.640625 1.40625 C 0.804688 1.445312 0.925781 1.472656 1 1.484375 C 1.070312 1.492188 1.140625 1.5 1.203125 1.5 C 1.378906 1.5 1.507812 1.46875 1.59375 1.40625 C 1.675781 1.351562 1.75 1.285156 1.8125 1.203125 C 1.820312 1.171875 1.882812 1.019531 2 0.75 C 2.113281 0.488281 2.191406 0.296875 2.234375 0.171875 L 0.109375 -5.75 L 1.203125 -5.75 L 2.75 -1.0625 Z M 2.75 -5.890625 Z M 2.75 -5.890625 "/>
</g>
<g id="glyph-1-6">
<path d="M 1.28125 -1.8125 C 1.3125 -1.488281 1.394531 -1.238281 1.53125 -1.0625 C 1.769531 -0.75 2.191406 -0.59375 2.796875 -0.59375 C 3.148438 -0.59375 3.460938 -0.671875 3.734375 -0.828125 C 4.003906 -0.984375 4.140625 -1.222656 4.140625 -1.546875 C 4.140625 -1.796875 4.03125 -1.984375 3.8125 -2.109375 C 3.675781 -2.191406 3.398438 -2.285156 2.984375 -2.390625 L 2.21875 -2.578125 C 1.726562 -2.703125 1.367188 -2.835938 1.140625 -2.984375 C 0.722656 -3.253906 0.515625 -3.617188 0.515625 -4.078125 C 0.515625 -4.617188 0.707031 -5.054688 1.09375 -5.390625 C 1.488281 -5.734375 2.019531 -5.90625 2.6875 -5.90625 C 3.550781 -5.90625 4.175781 -5.648438 4.5625 -5.140625 C 4.800781 -4.816406 4.914062 -4.46875 4.90625 -4.09375 L 4 -4.09375 C 3.976562 -4.3125 3.898438 -4.507812 3.765625 -4.6875 C 3.546875 -4.945312 3.160156 -5.078125 2.609375 -5.078125 C 2.242188 -5.078125 1.96875 -5.003906 1.78125 -4.859375 C 1.59375 -4.722656 1.5 -4.539062 1.5 -4.3125 C 1.5 -4.0625 1.625 -3.863281 1.875 -3.71875 C 2.007812 -3.625 2.21875 -3.539062 2.5 -3.46875 L 3.140625 -3.3125 C 3.835938 -3.144531 4.300781 -2.984375 4.53125 -2.828125 C 4.914062 -2.578125 5.109375 -2.191406 5.109375 -1.671875 C 5.109375 -1.148438 4.910156 -0.703125 4.515625 -0.328125 C 4.128906 0.0351562 3.539062 0.21875 2.75 0.21875 C 1.894531 0.21875 1.285156 0.0234375 0.921875 -0.359375 C 0.566406 -0.753906 0.378906 -1.238281 0.359375 -1.8125 Z M 2.71875 -5.890625 Z M 2.71875 -5.890625 "/>
</g>
<g id="glyph-1-7">
<path d="M 0.703125 -5.71875 L 1.6875 -5.71875 L 1.6875 0 L 0.703125 0 Z M 0.703125 -7.890625 L 1.6875 -7.890625 L 1.6875 -6.796875 L 0.703125 -6.796875 Z M 0.703125 -7.890625 "/>
</g>
<g id="glyph-1-8">
</g>
<g id="glyph-1-9">
<path d="M 1.53125 -2.546875 C 1.5625 -2.097656 1.671875 -1.734375 1.859375 -1.453125 C 2.210938 -0.929688 2.835938 -0.671875 3.734375 -0.671875 C 4.128906 -0.671875 4.492188 -0.726562 4.828125 -0.84375 C 5.460938 -1.0625 5.78125 -1.457031 5.78125 -2.03125 C 5.78125 -2.46875 5.644531 -2.773438 5.375 -2.953125 C 5.101562 -3.128906 4.675781 -3.285156 4.09375 -3.421875 L 3.03125 -3.65625 C 2.332031 -3.820312 1.835938 -4 1.546875 -4.1875 C 1.046875 -4.507812 0.796875 -5 0.796875 -5.65625 C 0.796875 -6.363281 1.039062 -6.945312 1.53125 -7.40625 C 2.019531 -7.863281 2.710938 -8.09375 3.609375 -8.09375 C 4.441406 -8.09375 5.144531 -7.890625 5.71875 -7.484375 C 6.300781 -7.085938 6.59375 -6.453125 6.59375 -5.578125 L 5.59375 -5.578125 C 5.53125 -5.992188 5.414062 -6.316406 5.25 -6.546875 C 4.914062 -6.960938 4.359375 -7.171875 3.578125 -7.171875 C 2.953125 -7.171875 2.5 -7.035156 2.21875 -6.765625 C 1.945312 -6.503906 1.8125 -6.195312 1.8125 -5.84375 C 1.8125 -5.457031 1.972656 -5.175781 2.296875 -5 C 2.503906 -4.882812 2.984375 -4.738281 3.734375 -4.5625 L 4.828125 -4.3125 C 5.367188 -4.1875 5.78125 -4.019531 6.0625 -3.8125 C 6.570312 -3.445312 6.828125 -2.910156 6.828125 -2.203125 C 6.828125 -1.328125 6.507812 -0.703125 5.875 -0.328125 C 5.238281 0.0429688 4.5 0.234375 3.65625 0.234375 C 2.675781 0.234375 1.90625 -0.015625 1.34375 -0.515625 C 0.789062 -1.015625 0.519531 -1.691406 0.53125 -2.546875 Z M 3.703125 -8.109375 Z M 3.703125 -8.109375 "/>
</g>
<g id="glyph-1-10">
<path d="M 0.90625 -7.359375 L 1.875 -7.359375 L 1.875 -5.75 L 2.796875 -5.75 L 2.796875 -4.96875 L 1.875 -4.96875 L 1.875 -1.203125 C 1.875 -1.003906 1.941406 -0.875 2.078125 -0.8125 C 2.160156 -0.769531 2.285156 -0.75 2.453125 -0.75 C 2.503906 -0.75 2.554688 -0.75 2.609375 -0.75 C 2.660156 -0.75 2.722656 -0.753906 2.796875 -0.765625 L 2.796875 0 C 2.679688 0.03125 2.5625 0.0507812 2.4375 0.0625 C 2.320312 0.0820312 2.195312 0.09375 2.0625 0.09375 C 1.613281 0.09375 1.304688 -0.0195312 1.140625 -0.25 C 0.984375 -0.488281 0.90625 -0.789062 0.90625 -1.15625 L 0.90625 -4.96875 L 0.125 -4.96875 L 0.125 -5.75 L 0.90625 -5.75 Z M 0.90625 -7.359375 "/>
</g>
<g id="glyph-1-11">
<path d="M 2.734375 -5.859375 C 3.191406 -5.859375 3.585938 -5.742188 3.921875 -5.515625 C 4.097656 -5.390625 4.285156 -5.207031 4.484375 -4.96875 L 4.484375 -5.703125 L 5.375 -5.703125 L 5.375 -0.46875 C 5.375 0.257812 5.265625 0.835938 5.046875 1.265625 C 4.648438 2.046875 3.894531 2.4375 2.78125 2.4375 C 2.15625 2.4375 1.628906 2.296875 1.203125 2.015625 C 0.785156 1.734375 0.550781 1.300781 0.5 0.71875 L 1.484375 0.71875 C 1.535156 0.96875 1.628906 1.164062 1.765625 1.3125 C 1.984375 1.53125 2.328125 1.640625 2.796875 1.640625 C 3.535156 1.640625 4.019531 1.375 4.25 0.84375 C 4.382812 0.539062 4.445312 -0.00390625 4.4375 -0.796875 C 4.25 -0.503906 4.015625 -0.285156 3.734375 -0.140625 C 3.460938 -0.00390625 3.109375 0.0625 2.671875 0.0625 C 2.046875 0.0625 1.5 -0.15625 1.03125 -0.59375 C 0.5625 -1.03125 0.328125 -1.757812 0.328125 -2.78125 C 0.328125 -3.75 0.5625 -4.503906 1.03125 -5.046875 C 1.5 -5.585938 2.066406 -5.859375 2.734375 -5.859375 Z M 4.484375 -2.90625 C 4.484375 -3.613281 4.332031 -4.140625 4.03125 -4.484375 C 3.738281 -4.828125 3.367188 -5 2.921875 -5 C 2.234375 -5 1.765625 -4.679688 1.515625 -4.046875 C 1.390625 -3.703125 1.328125 -3.253906 1.328125 -2.703125 C 1.328125 -2.054688 1.457031 -1.5625 1.71875 -1.21875 C 1.976562 -0.882812 2.332031 -0.71875 2.78125 -0.71875 C 3.46875 -0.71875 3.957031 -1.03125 4.25 -1.65625 C 4.40625 -2.007812 4.484375 -2.425781 4.484375 -2.90625 Z M 2.859375 -5.890625 Z M 2.859375 -5.890625 "/>
</g>
<g id="glyph-1-12">
<path d="M 3.109375 -5.875 C 3.515625 -5.875 3.90625 -5.78125 4.28125 -5.59375 C 4.664062 -5.40625 4.960938 -5.15625 5.171875 -4.84375 C 5.359375 -4.5625 5.484375 -4.222656 5.546875 -3.828125 C 5.609375 -3.566406 5.640625 -3.144531 5.640625 -2.5625 L 1.421875 -2.5625 C 1.441406 -1.976562 1.578125 -1.507812 1.828125 -1.15625 C 2.085938 -0.8125 2.488281 -0.640625 3.03125 -0.640625 C 3.539062 -0.640625 3.945312 -0.804688 4.25 -1.140625 C 4.414062 -1.328125 4.535156 -1.550781 4.609375 -1.8125 L 5.5625 -1.8125 C 5.53125 -1.59375 5.441406 -1.351562 5.296875 -1.09375 C 5.160156 -0.832031 5.003906 -0.625 4.828125 -0.46875 C 4.535156 -0.175781 4.175781 0.0195312 3.75 0.125 C 3.507812 0.175781 3.242188 0.203125 2.953125 0.203125 C 2.234375 0.203125 1.625 -0.0546875 1.125 -0.578125 C 0.632812 -1.097656 0.390625 -1.828125 0.390625 -2.765625 C 0.390625 -3.691406 0.640625 -4.441406 1.140625 -5.015625 C 1.640625 -5.585938 2.296875 -5.875 3.109375 -5.875 Z M 4.640625 -3.328125 C 4.609375 -3.753906 4.519531 -4.09375 4.375 -4.34375 C 4.101562 -4.800781 3.660156 -5.03125 3.046875 -5.03125 C 2.597656 -5.03125 2.222656 -4.867188 1.921875 -4.546875 C 1.628906 -4.234375 1.472656 -3.828125 1.453125 -3.328125 Z M 3.015625 -5.890625 Z M 3.015625 -5.890625 "/>
</g>
<g id="glyph-2-0">
<path d="M 0 -0.359375 L -7.890625 -0.359375 L -7.890625 -6.625 L 0 -6.625 Z M -0.984375 -5.625 L -6.90625 -5.625 L -6.90625 -1.34375 L -0.984375 -1.34375 Z M -0.984375 -5.625 "/>
</g>
<g id="glyph-2-1">
<path d="M -5.75 -0.734375 L -5.75 -1.65625 L -4.765625 -1.65625 C -4.953125 -1.726562 -5.179688 -1.910156 -5.453125 -2.203125 C -5.734375 -2.492188 -5.875 -2.832031 -5.875 -3.21875 C -5.875 -3.238281 -5.875 -3.269531 -5.875 -3.3125 C -5.875 -3.351562 -5.867188 -3.425781 -5.859375 -3.53125 L -4.828125 -3.53125 C -4.835938 -3.476562 -4.84375 -3.425781 -4.84375 -3.375 C -4.851562 -3.320312 -4.859375 -3.269531 -4.859375 -3.21875 C -4.859375 -2.726562 -4.703125 -2.351562 -4.390625 -2.09375 C -4.078125 -1.832031 -3.71875 -1.703125 -3.3125 -1.703125 L 0 -1.703125 L 0 -0.734375 Z M -5.75 -0.734375 "/>
</g>
<g id="glyph-2-2">
<path d="M -5.75 -0.703125 L -5.75 -1.671875 L -4.9375 -1.671875 C -5.21875 -1.898438 -5.421875 -2.101562 -5.546875 -2.28125 C -5.765625 -2.601562 -5.875 -2.96875 -5.875 -3.375 C -5.875 -3.832031 -5.765625 -4.203125 -5.546875 -4.484375 C -5.410156 -4.640625 -5.21875 -4.78125 -4.96875 -4.90625 C -5.28125 -5.125 -5.507812 -5.378906 -5.65625 -5.671875 C -5.800781 -5.960938 -5.875 -6.285156 -5.875 -6.640625 C -5.875 -7.410156 -5.597656 -7.9375 -5.046875 -8.21875 C -4.742188 -8.375 -4.335938 -8.453125 -3.828125 -8.453125 L 0 -8.453125 L 0 -7.4375 L -4 -7.4375 C -4.382812 -7.4375 -4.644531 -7.34375 -4.78125 -7.15625 C -4.925781 -6.96875 -5 -6.734375 -5 -6.453125 C -5 -6.078125 -4.867188 -5.75 -4.609375 -5.46875 C -4.359375 -5.195312 -3.9375 -5.0625 -3.34375 -5.0625 L 0 -5.0625 L 0 -4.078125 L -3.75 -4.078125 C -4.144531 -4.078125 -4.429688 -4.03125 -4.609375 -3.9375 C -4.878906 -3.789062 -5.015625 -3.519531 -5.015625 -3.125 C -5.015625 -2.757812 -4.867188 -2.425781 -4.578125 -2.125 C -4.296875 -1.820312 -3.785156 -1.671875 -3.046875 -1.671875 L 0 -1.671875 L 0 -0.703125 Z M -5.75 -0.703125 "/>
</g>
<g id="glyph-2-3">
<path d="M -1.8125 -1.28125 C -1.488281 -1.3125 -1.238281 -1.394531 -1.0625 -1.53125 C -0.75 -1.769531 -0.59375 -2.191406 -0.59375 -2.796875 C -0.59375 -3.148438 -0.671875 -3.460938 -0.828125 -3.734375 C -0.984375 -4.003906 -1.222656 -4.140625 -1.546875 -4.140625 C -1.796875 -4.140625 -1.984375 -4.03125 -2.109375 -3.8125 C -2.191406 -3.675781 -2.285156 -3.398438 -2.390625 -2.984375 L -2.578125 -2.21875 C -2.703125 -1.726562 -2.835938 -1.367188 -2.984375 -1.140625 C -3.253906 -0.722656 -3.617188 -0.515625 -4.078125 -0.515625 C -4.617188 -0.515625 -5.054688 -0.707031 -5.390625 -1.09375 C -5.734375 -1.488281 -5.90625 -2.019531 -5.90625 -2.6875 C -5.90625 -3.550781 -5.648438 -4.175781 -5.140625 -4.5625 C -4.816406 -4.800781 -4.46875 -4.914062 -4.09375 -4.90625 L -4.09375 -4 C -4.3125 -3.976562 -4.507812 -3.898438 -4.6875 -3.765625 C -4.945312 -3.546875 -5.078125 -3.160156 -5.078125 -2.609375 C -5.078125 -2.242188 -5.003906 -1.96875 -4.859375 -1.78125 C -4.722656 -1.59375 -4.539062 -1.5 -4.3125 -1.5 C -4.0625 -1.5 -3.863281 -1.625 -3.71875 -1.875 C -3.625 -2.007812 -3.539062 -2.21875 -3.46875 -2.5 L -3.3125 -3.140625 C -3.144531 -3.835938 -2.984375 -4.300781 -2.828125 -4.53125 C -2.578125 -4.914062 -2.191406 -5.109375 -1.671875 -5.109375 C -1.148438 -5.109375 -0.703125 -4.910156 -0.328125 -4.515625 C 0.0351562 -4.128906 0.21875 -3.539062 0.21875 -2.75 C 0.21875 -1.894531 0.0234375 -1.285156 -0.359375 -0.921875 C -0.753906 -0.566406 -1.238281 -0.378906 -1.8125 -0.359375 Z M -5.890625 -2.71875 Z M -5.890625 -2.71875 "/>
</g>
<g id="glyph-2-4">
<path d="M -5.875 -3.109375 C -5.875 -3.515625 -5.78125 -3.90625 -5.59375 -4.28125 C -5.40625 -4.664062 -5.15625 -4.960938 -4.84375 -5.171875 C -4.5625 -5.359375 -4.222656 -5.484375 -3.828125 -5.546875 C -3.566406 -5.609375 -3.144531 -5.640625 -2.5625 -5.640625 L -2.5625 -1.421875 C -1.976562 -1.441406 -1.507812 -1.578125 -1.15625 -1.828125 C -0.8125 -2.085938 -0.640625 -2.488281 -0.640625 -3.03125 C -0.640625 -3.539062 -0.804688 -3.945312 -1.140625 -4.25 C -1.328125 -4.414062 -1.550781 -4.535156 -1.8125 -4.609375 L -1.8125 -5.5625 C -1.59375 -5.53125 -1.351562 -5.441406 -1.09375 -5.296875 C -0.832031 -5.160156 -0.625 -5.003906 -0.46875 -4.828125 C -0.175781 -4.535156 0.0195312 -4.175781 0.125 -3.75 C 0.175781 -3.507812 0.203125 -3.242188 0.203125 -2.953125 C 0.203125 -2.234375 -0.0546875 -1.625 -0.578125 -1.125 C -1.097656 -0.632812 -1.828125 -0.390625 -2.765625 -0.390625 C -3.691406 -0.390625 -4.441406 -0.640625 -5.015625 -1.140625 C -5.585938 -1.640625 -5.875 -2.296875 -5.875 -3.109375 Z M -3.328125 -4.640625 C -3.753906 -4.609375 -4.09375 -4.519531 -4.34375 -4.375 C -4.800781 -4.101562 -5.03125 -3.660156 -5.03125 -3.046875 C -5.03125 -2.597656 -4.867188 -2.222656 -4.546875 -1.921875 C -4.234375 -1.628906 -3.828125 -1.472656 -3.328125 -1.453125 Z M -5.890625 -3.015625 Z M -5.890625 -3.015625 "/>
</g>
</g>
<clipPath id="clip-0">
<path clip-rule="nonzero" d="M 36.152344 5.480469 L 426.523438 5.480469 L 426.523438 254.851562 L 36.152344 254.851562 Z M 36.152344 5.480469 "/>
</clipPath>
<clipPath id="clip-1">
<path clip-rule="nonzero" d="M 36.152344 251 L 426.523438 251 L 426.523438 253 L 36.152344 253 Z M 36.152344 251 "/>
</clipPath>
<clipPath id="clip-2">
<path clip-rule="nonzero" d="M 36.152344 194 L 426.523438 194 L 426.523438 195 L 36.152344 195 Z M 36.152344 194 "/>
</clipPath>
<clipPath id="clip-3">
<path clip-rule="nonzero" d="M 36.152344 137 L 426.523438 137 L 426.523438 138 L 36.152344 138 Z M 36.152344 137 "/>
</clipPath>
<clipPath id="clip-4">
<path clip-rule="nonzero" d="M 36.152344 80 L 426.523438 80 L 426.523438 81 L 36.152344 81 Z M 36.152344 80 "/>
</clipPath>
<clipPath id="clip-5">
<path clip-rule="nonzero" d="M 36.152344 23 L 426.523438 23 L 426.523438 24 L 36.152344 24 Z M 36.152344 23 "/>
</clipPath>
<clipPath id="clip-6">
<path clip-rule="nonzero" d="M 53 5.480469 L 55 5.480469 L 55 254.851562 L 53 254.851562 Z M 53 5.480469 "/>
</clipPath>
<clipPath id="clip-7">
<path clip-rule="nonzero" d="M 132 5.480469 L 134 5.480469 L 134 254.851562 L 132 254.851562 Z M 132 5.480469 "/>
</clipPath>
<clipPath id="clip-8">
<path clip-rule="nonzero" d="M 211 5.480469 L 212 5.480469 L 212 254.851562 L 211 254.851562 Z M 211 5.480469 "/>
</clipPath>
<clipPath id="clip-9">
<path clip-rule="nonzero" d="M 290 5.480469 L 291 5.480469 L 291 254.851562 L 290 254.851562 Z M 290 5.480469 "/>
</clipPath>
<clipPath id="clip-10">
<path clip-rule="nonzero" d="M 369 5.480469 L 370 5.480469 L 370 254.851562 L 369 254.851562 Z M 369 5.480469 "/>
</clipPath>
<clipPath id="clip-11">
<path clip-rule="nonzero" d="M 36.152344 222 L 426.523438 222 L 426.523438 224 L 36.152344 224 Z M 36.152344 222 "/>
</clipPath>
<clipPath id="clip-12">
<path clip-rule="nonzero" d="M 36.152344 165 L 426.523438 165 L 426.523438 167 L 36.152344 167 Z M 36.152344 165 "/>
</clipPath>
<clipPath id="clip-13">
<path clip-rule="nonzero" d="M 36.152344 108 L 426.523438 108 L 426.523438 110 L 36.152344 110 Z M 36.152344 108 "/>
</clipPath>
<clipPath id="clip-14">
<path clip-rule="nonzero" d="M 36.152344 51 L 426.523438 51 L 426.523438 53 L 36.152344 53 Z M 36.152344 51 "/>
</clipPath>
<clipPath id="clip-15">
<path clip-rule="nonzero" d="M 92 5.480469 L 94 5.480469 L 94 254.851562 L 92 254.851562 Z M 92 5.480469 "/>
</clipPath>
<clipPath id="clip-16">
<path clip-rule="nonzero" d="M 171 5.480469 L 173 5.480469 L 173 254.851562 L 171 254.851562 Z M 171 5.480469 "/>
</clipPath>
<clipPath id="clip-17">
<path clip-rule="nonzero" d="M 250 5.480469 L 252 5.480469 L 252 254.851562 L 250 254.851562 Z M 250 5.480469 "/>
</clipPath>
<clipPath id="clip-18">
<path clip-rule="nonzero" d="M 329 5.480469 L 331 5.480469 L 331 254.851562 L 329 254.851562 Z M 329 5.480469 "/>
</clipPath>
<clipPath id="clip-19">
<path clip-rule="nonzero" d="M 408 5.480469 L 410 5.480469 L 410 254.851562 L 408 254.851562 Z M 408 5.480469 "/>
</clipPath>
<clipPath id="clip-20">
<path clip-rule="nonzero" d="M 36.152344 5.480469 L 426.523438 5.480469 L 426.523438 254.851562 L 36.152344 254.851562 Z M 36.152344 5.480469 "/>
</clipPath>
</defs>
<rect x="-43.2" y="-28.8" width="518.4" height="345.6" fill="rgb(100%, 100%, 100%)" fill-opacity="1"/>
<path fill="none" stroke-width="1.066978" stroke-linecap="round" stroke-linejoin="round" stroke="rgb(100%, 100%, 100%)" stroke-opacity="1" stroke-miterlimit="10" d="M 0 288 L 432 288 L 432 0 L 0 0 Z M 0 288 "/>
<g clip-path="url(#clip-0)">
<path fill-rule="nonzero" fill="rgb(100%, 100%, 100%)" fill-opacity="1" d="M 36.152344 254.847656 L 426.523438 254.847656 L 426.523438 5.476562 L 36.152344 5.476562 Z M 36.152344 254.847656 "/>
</g>
<g clip-path="url(#clip-1)">
<path fill="none" stroke-width="0.533489" stroke-linecap="butt" stroke-linejoin="round" stroke="rgb(92.156863%, 92.156863%, 92.156863%)" stroke-opacity="1" stroke-miterlimit="10" d="M 36.152344 251.765625 L 426.519531 251.765625 "/>
</g>
<g clip-path="url(#clip-2)">
<path fill="none" stroke-width="0.533489" stroke-linecap="butt" stroke-linejoin="round" stroke="rgb(92.156863%, 92.156863%, 92.156863%)" stroke-opacity="1" stroke-miterlimit="10" d="M 36.152344 194.679688 L 426.519531 194.679688 "/>
</g>
<g clip-path="url(#clip-3)">
<path fill="none" stroke-width="0.533489" stroke-linecap="butt" stroke-linejoin="round" stroke="rgb(92.156863%, 92.156863%, 92.156863%)" stroke-opacity="1" stroke-miterlimit="10" d="M 36.152344 137.59375 L 426.519531 137.59375 "/>
</g>
<g clip-path="url(#clip-4)">
<path fill="none" stroke-width="0.533489" stroke-linecap="butt" stroke-linejoin="round" stroke="rgb(92.156863%, 92.156863%, 92.156863%)" stroke-opacity="1" stroke-miterlimit="10" d="M 36.152344 80.507812 L 426.519531 80.507812 "/>
</g>
<g clip-path="url(#clip-5)">
<path fill="none" stroke-width="0.533489" stroke-linecap="butt" stroke-linejoin="round" stroke="rgb(92.156863%, 92.156863%, 92.156863%)" stroke-opacity="1" stroke-miterlimit="10" d="M 36.152344 23.421875 L 426.519531 23.421875 "/>
</g>
<g clip-path="url(#clip-6)">
<path fill="none" stroke-width="0.533489" stroke-linecap="butt" stroke-linejoin="round" stroke="rgb(92.156863%, 92.156863%, 92.156863%)" stroke-opacity="1" stroke-miterlimit="10" d="M 53.894531 254.847656 L 53.894531 5.480469 "/>
</g>
<g clip-path="url(#clip-7)">
<path fill="none" stroke-width="0.533489" stroke-linecap="butt" stroke-linejoin="round" stroke="rgb(92.156863%, 92.156863%, 92.156863%)" stroke-opacity="1" stroke-miterlimit="10" d="M 132.757812 254.847656 L 132.757812 5.480469 "/>
</g>
<g clip-path="url(#clip-8)">
<path fill="none" stroke-width="0.533489" stroke-linecap="butt" stroke-linejoin="round" stroke="rgb(92.156863%, 92.156863%, 92.156863%)" stroke-opacity="1" stroke-miterlimit="10" d="M 211.621094 254.847656 L 211.621094 5.480469 "/>
</g>
<g clip-path="url(#clip-9)">
<path fill="none" stroke-width="0.533489" stroke-linecap="butt" stroke-linejoin="round" stroke="rgb(92.156863%, 92.156863%, 92.156863%)" stroke-opacity="1" stroke-miterlimit="10" d="M 290.484375 254.847656 L 290.484375 5.480469 "/>
</g>
<g clip-path="url(#clip-10)">
<path fill="none" stroke-width="0.533489" stroke-linecap="butt" stroke-linejoin="round" stroke="rgb(92.156863%, 92.156863%, 92.156863%)" stroke-opacity="1" stroke-miterlimit="10" d="M 369.34375 254.847656 L 369.34375 5.480469 "/>
</g>
<g clip-path="url(#clip-11)">
<path fill="none" stroke-width="1.066978" stroke-linecap="butt" stroke-linejoin="round" stroke="rgb(92.156863%, 92.156863%, 92.156863%)" stroke-opacity="1" stroke-miterlimit="10" d="M 36.152344 223.222656 L 426.519531 223.222656 "/>
</g>
<g clip-path="url(#clip-12)">
<path fill="none" stroke-width="1.066978" stroke-linecap="butt" stroke-linejoin="round" stroke="rgb(92.156863%, 92.156863%, 92.156863%)" stroke-opacity="1" stroke-miterlimit="10" d="M 36.152344 166.136719 L 426.519531 166.136719 "/>
</g>
<g clip-path="url(#clip-13)">
<path fill="none" stroke-width="1.066978" stroke-linecap="butt" stroke-linejoin="round" stroke="rgb(92.156863%, 92.156863%, 92.156863%)" stroke-opacity="1" stroke-miterlimit="10" d="M 36.152344 109.050781 L 426.519531 109.050781 "/>
</g>
<g clip-path="url(#clip-14)">
<path fill="none" stroke-width="1.066978" stroke-linecap="butt" stroke-linejoin="round" stroke="rgb(92.156863%, 92.156863%, 92.156863%)" stroke-opacity="1" stroke-miterlimit="10" d="M 36.152344 51.964844 L 426.519531 51.964844 "/>
</g>
<g clip-path="url(#clip-15)">
<path fill="none" stroke-width="1.066978" stroke-linecap="butt" stroke-linejoin="round" stroke="rgb(92.156863%, 92.156863%, 92.156863%)" stroke-opacity="1" stroke-miterlimit="10" d="M 93.324219 254.847656 L 93.324219 5.480469 "/>
</g>
<g clip-path="url(#clip-16)">
<path fill="none" stroke-width="1.066978" stroke-linecap="butt" stroke-linejoin="round" stroke="rgb(92.156863%, 92.156863%, 92.156863%)" stroke-opacity="1" stroke-miterlimit="10" d="M 172.1875 254.847656 L 172.1875 5.480469 "/>
</g>
<g clip-path="url(#clip-17)">
<path fill="none" stroke-width="1.066978" stroke-linecap="butt" stroke-linejoin="round" stroke="rgb(92.156863%, 92.156863%, 92.156863%)" stroke-opacity="1" stroke-miterlimit="10" d="M 251.050781 254.847656 L 251.050781 5.480469 "/>
</g>
<g clip-path="url(#clip-18)">
<path fill="none" stroke-width="1.066978" stroke-linecap="butt" stroke-linejoin="round" stroke="rgb(92.156863%, 92.156863%, 92.156863%)" stroke-opacity="1" stroke-miterlimit="10" d="M 329.914062 254.847656 L 329.914062 5.480469 "/>
</g>
<g clip-path="url(#clip-19)">
<path fill="none" stroke-width="1.066978" stroke-linecap="butt" stroke-linejoin="round" stroke="rgb(92.156863%, 92.156863%, 92.156863%)" stroke-opacity="1" stroke-miterlimit="10" d="M 408.777344 254.847656 L 408.777344 5.480469 "/>
</g>
<path fill="none" stroke-width="1.066978" stroke-linecap="butt" stroke-linejoin="round" stroke="rgb(97.254902%, 46.27451%, 42.745098%)" stroke-opacity="0.501961" stroke-miterlimit="10" d="M 53.894531 16.8125 L 93.324219 20.035156 L 132.757812 79.363281 "/>
<path fill="none" stroke-width="1.066978" stroke-linecap="butt" stroke-linejoin="round" stroke="rgb(92.941176%, 50.588235%, 25.490196%)" stroke-opacity="0.501961" stroke-miterlimit="10" d="M 53.894531 117.769531 L 93.324219 163.902344 L 132.757812 180.835938 "/>
<path fill="none" stroke-width="1.066978" stroke-linecap="butt" stroke-linejoin="round" stroke="rgb(87.843137%, 54.509804%, 0%)" stroke-opacity="0.501961" stroke-miterlimit="10" d="M 53.894531 130.652344 L 93.324219 158.882812 L 132.757812 168.578125 "/>
<path fill="none" stroke-width="1.066978" stroke-linecap="butt" stroke-linejoin="round" stroke="rgb(81.176471%, 58.039216%, 0%)" stroke-opacity="0.501961" stroke-miterlimit="10" d="M 53.894531 101.613281 L 93.324219 99.378906 L 132.757812 122.808594 "/>
<path fill="none" stroke-width="1.066978" stroke-linecap="butt" stroke-linejoin="round" stroke="rgb(73.333333%, 61.568627%, 0%)" stroke-opacity="0.501961" stroke-miterlimit="10" d="M 53.894531 156.785156 L 93.324219 182.488281 L 132.757812 197.738281 L 172.1875 198.753906 "/>
<path fill="none" stroke-width="1.066978" stroke-linecap="butt" stroke-linejoin="round" stroke="rgb(63.921569%, 64.705882%, 0%)" stroke-opacity="0.501961" stroke-miterlimit="10" d="M 53.894531 132.9375 L 93.324219 164.5 L 132.757812 187.488281 L 172.1875 189.652344 "/>
<path fill="none" stroke-width="1.066978" stroke-linecap="butt" stroke-linejoin="round" stroke="rgb(52.156863%, 67.843137%, 0%)" stroke-opacity="0.501961" stroke-miterlimit="10" d="M 53.894531 132.796875 L 93.324219 157.550781 L 132.757812 181.050781 "/>
<path fill="none" stroke-width="1.066978" stroke-linecap="butt" stroke-linejoin="round" stroke="rgb(35.686275%, 70.196078%, 0%)" stroke-opacity="0.501961" stroke-miterlimit="10" d="M 53.894531 147.878906 L 93.324219 184.308594 L 132.757812 207.03125 L 172.1875 208.984375 L 211.621094 239.390625 L 251.050781 226.398438 L 290.484375 218.085938 L 329.914062 229.359375 L 369.34375 218.015625 L 408.777344 208.839844 "/>
<path fill="none" stroke-width="1.066978" stroke-linecap="butt" stroke-linejoin="round" stroke="rgb(0%, 72.156863%, 12.54902%)" stroke-opacity="0.501961" stroke-miterlimit="10" d="M 53.894531 98.503906 L 93.324219 98.511719 L 132.757812 126.4375 "/>
<path fill="none" stroke-width="1.066978" stroke-linecap="butt" stroke-linejoin="round" stroke="rgb(0%, 73.72549%, 34.901961%)" stroke-opacity="0.501961" stroke-miterlimit="10" d="M 53.894531 157.96875 L 93.324219 179 L 132.757812 203.980469 L 172.1875 197.746094 "/>
<path fill="none" stroke-width="1.066978" stroke-linecap="butt" stroke-linejoin="round" stroke="rgb(0%, 74.901961%, 49.019608%)" stroke-opacity="0.501961" stroke-miterlimit="10" d="M 53.894531 146.285156 L 93.324219 172.359375 L 132.757812 193.863281 L 172.1875 191.5 "/>
<path fill="none" stroke-width="1.066978" stroke-linecap="butt" stroke-linejoin="round" stroke="rgb(0%, 75.686275%, 61.176471%)" stroke-opacity="0.501961" stroke-miterlimit="10" d="M 53.894531 138.265625 L 93.324219 158.988281 L 132.757812 178.023438 "/>
<path fill="none" stroke-width="1.066978" stroke-linecap="butt" stroke-linejoin="round" stroke="rgb(0%, 75.294118%, 72.156863%)" stroke-opacity="0.501961" stroke-miterlimit="10" d="M 53.894531 139.472656 L 93.324219 149.527344 L 132.757812 166.847656 "/>
<path fill="none" stroke-width="1.066978" stroke-linecap="butt" stroke-linejoin="round" stroke="rgb(0%, 74.117647%, 81.568627%)" stroke-opacity="0.501961" stroke-miterlimit="10" d="M 53.894531 165.621094 L 93.324219 194.980469 L 132.757812 209.4375 L 172.1875 204.917969 L 211.621094 232.398438 L 251.050781 219.855469 "/>
<path fill="none" stroke-width="1.066978" stroke-linecap="butt" stroke-linejoin="round" stroke="rgb(0%, 72.156863%, 89.803922%)" stroke-opacity="0.501961" stroke-miterlimit="10" d="M 53.894531 146.585938 L 93.324219 179.761719 L 132.757812 197.027344 L 172.1875 191.777344 "/>
<path fill="none" stroke-width="1.066978" stroke-linecap="butt" stroke-linejoin="round" stroke="rgb(0%, 69.019608%, 96.470588%)" stroke-opacity="0.501961" stroke-miterlimit="10" d="M 53.894531 137.144531 L 93.324219 167.972656 L 132.757812 184.535156 "/>
<path fill="none" stroke-width="1.066978" stroke-linecap="butt" stroke-linejoin="round" stroke="rgb(0%, 64.705882%, 100%)" stroke-opacity="0.501961" stroke-miterlimit="10" d="M 53.894531 93.6875 L 93.324219 104.9375 L 132.757812 127.378906 "/>
<path fill="none" stroke-width="1.066978" stroke-linecap="butt" stroke-linejoin="round" stroke="rgb(47.45098%, 59.215686%, 100%)" stroke-opacity="0.501961" stroke-miterlimit="10" d="M 53.894531 131.15625 L 93.324219 154.472656 L 132.757812 173.898438 "/>
<path fill="none" stroke-width="1.066978" stroke-linecap="butt" stroke-linejoin="round" stroke="rgb(67.45098%, 53.333333%, 100%)" stroke-opacity="0.501961" stroke-miterlimit="10" d="M 53.894531 159.203125 L 93.324219 196.027344 L 132.757812 212.921875 L 172.1875 206.777344 L 211.621094 234.535156 L 251.050781 220.183594 "/>
<path fill="none" stroke-width="1.066978" stroke-linecap="butt" stroke-linejoin="round" stroke="rgb(81.176471%, 47.058824%, 100%)" stroke-opacity="0.501961" stroke-miterlimit="10" d="M 53.894531 142.796875 L 93.324219 178.691406 L 132.757812 197.027344 L 172.1875 194.082031 "/>
<path fill="none" stroke-width="1.066978" stroke-linecap="butt" stroke-linejoin="round" stroke="rgb(90.588235%, 41.960784%, 95.294118%)" stroke-opacity="0.501961" stroke-miterlimit="10" d="M 53.894531 133.625 L 93.324219 164.628906 L 132.757812 183.933594 "/>
<path fill="none" stroke-width="1.066978" stroke-linecap="butt" stroke-linejoin="round" stroke="rgb(96.862745%, 38.823529%, 87.843137%)" stroke-opacity="0.501961" stroke-miterlimit="10" d="M 53.894531 136.578125 L 93.324219 155.707031 L 132.757812 176.871094 "/>
<path fill="none" stroke-width="1.066978" stroke-linecap="butt" stroke-linejoin="round" stroke="rgb(100%, 38.039216%, 78.823529%)" stroke-opacity="0.501961" stroke-miterlimit="10" d="M 53.894531 159.96875 L 93.324219 190.246094 L 132.757812 212.617188 L 172.1875 204.503906 L 211.621094 231.546875 "/>
<path fill="none" stroke-width="1.066978" stroke-linecap="butt" stroke-linejoin="round" stroke="rgb(100%, 39.607843%, 68.235294%)" stroke-opacity="0.501961" stroke-miterlimit="10" d="M 53.894531 156.699219 L 93.324219 197.382812 L 132.757812 217.242188 L 172.1875 215.082031 L 211.621094 243.515625 L 251.050781 229.539062 L 290.484375 221.226562 L 329.914062 232.164062 L 369.34375 221.199219 L 408.777344 212.214844 "/>
<path fill="none" stroke-width="1.066978" stroke-linecap="butt" stroke-linejoin="round" stroke="rgb(100%, 42.352941%, 56.470588%)" stroke-opacity="0.501961" stroke-miterlimit="10" d="M 53.894531 145.476562 L 93.324219 178.46875 L 132.757812 195.207031 L 172.1875 195.835938 "/>
<g clip-path="url(#clip-20)">
<path fill="none" stroke-width="1.066978" stroke-linecap="round" stroke-linejoin="round" stroke="rgb(20%, 20%, 20%)" stroke-opacity="1" stroke-miterlimit="10" d="M 36.152344 254.847656 L 426.523438 254.847656 L 426.523438 5.476562 L 36.152344 5.476562 Z M 36.152344 254.847656 "/>
</g>
<g fill="rgb(30.196078%, 30.196078%, 30.196078%)" fill-opacity="1">
<use xlink:href="#glyph-0-1" x="19.21875" y="226.499023"/>
<use xlink:href="#glyph-0-2" x="24.21875" y="226.499023"/>
<use xlink:href="#glyph-0-3" x="26.21875" y="226.499023"/>
</g>
<g fill="rgb(30.196078%, 30.196078%, 30.196078%)" fill-opacity="1">
<use xlink:href="#glyph-0-3" x="19.21875" y="169.413086"/>
<use xlink:href="#glyph-0-2" x="24.21875" y="169.413086"/>
<use xlink:href="#glyph-0-4" x="26.21875" y="169.413086"/>
</g>
<g fill="rgb(30.196078%, 30.196078%, 30.196078%)" fill-opacity="1">
<use xlink:href="#glyph-0-3" x="19.21875" y="112.327148"/>
<use xlink:href="#glyph-0-2" x="24.21875" y="112.327148"/>
<use xlink:href="#glyph-0-3" x="26.21875" y="112.327148"/>
</g>
<g fill="rgb(30.196078%, 30.196078%, 30.196078%)" fill-opacity="1">
<use xlink:href="#glyph-0-5" x="19.21875" y="55.241211"/>
<use xlink:href="#glyph-0-2" x="24.21875" y="55.241211"/>
<use xlink:href="#glyph-0-4" x="26.21875" y="55.241211"/>
</g>
<path fill="none" stroke-width="1.066978" stroke-linecap="butt" stroke-linejoin="round" stroke="rgb(20%, 20%, 20%)" stroke-opacity="1" stroke-miterlimit="10" d="M 33.410156 223.222656 L 36.152344 223.222656 "/>
<path fill="none" stroke-width="1.066978" stroke-linecap="butt" stroke-linejoin="round" stroke="rgb(20%, 20%, 20%)" stroke-opacity="1" stroke-miterlimit="10" d="M 33.410156 166.136719 L 36.152344 166.136719 "/>
<path fill="none" stroke-width="1.066978" stroke-linecap="butt" stroke-linejoin="round" stroke="rgb(20%, 20%, 20%)" stroke-opacity="1" stroke-miterlimit="10" d="M 33.410156 109.050781 L 36.152344 109.050781 "/>
<path fill="none" stroke-width="1.066978" stroke-linecap="butt" stroke-linejoin="round" stroke="rgb(20%, 20%, 20%)" stroke-opacity="1" stroke-miterlimit="10" d="M 33.410156 51.964844 L 36.152344 51.964844 "/>
<path fill="none" stroke-width="1.066978" stroke-linecap="butt" stroke-linejoin="round" stroke="rgb(20%, 20%, 20%)" stroke-opacity="1" stroke-miterlimit="10" d="M 93.324219 257.589844 L 93.324219 254.847656 "/>
<path fill="none" stroke-width="1.066978" stroke-linecap="butt" stroke-linejoin="round" stroke="rgb(20%, 20%, 20%)" stroke-opacity="1" stroke-miterlimit="10" d="M 172.1875 257.589844 L 172.1875 254.847656 "/>
<path fill="none" stroke-width="1.066978" stroke-linecap="butt" stroke-linejoin="round" stroke="rgb(20%, 20%, 20%)" stroke-opacity="1" stroke-miterlimit="10" d="M 251.050781 257.589844 L 251.050781 254.847656 "/>
<path fill="none" stroke-width="1.066978" stroke-linecap="butt" stroke-linejoin="round" stroke="rgb(20%, 20%, 20%)" stroke-opacity="1" stroke-miterlimit="10" d="M 329.914062 257.589844 L 329.914062 254.847656 "/>
<path fill="none" stroke-width="1.066978" stroke-linecap="butt" stroke-linejoin="round" stroke="rgb(20%, 20%, 20%)" stroke-opacity="1" stroke-miterlimit="10" d="M 408.777344 257.589844 L 408.777344 254.847656 "/>
<g fill="rgb(30.196078%, 30.196078%, 30.196078%)" fill-opacity="1">
<use xlink:href="#glyph-0-6" x="90.824219" y="266.557617"/>
</g>
<g fill="rgb(30.196078%, 30.196078%, 30.196078%)" fill-opacity="1">
<use xlink:href="#glyph-0-1" x="169.6875" y="266.557617"/>
</g>
<g fill="rgb(30.196078%, 30.196078%, 30.196078%)" fill-opacity="1">
<use xlink:href="#glyph-0-5" x="248.550781" y="266.557617"/>
</g>
<g fill="rgb(30.196078%, 30.196078%, 30.196078%)" fill-opacity="1">
<use xlink:href="#glyph-0-7" x="327.414062" y="266.557617"/>
</g>
<g fill="rgb(30.196078%, 30.196078%, 30.196078%)" fill-opacity="1">
<use xlink:href="#glyph-0-8" x="403.777344" y="266.557617"/>
<use xlink:href="#glyph-0-4" x="408.777344" y="266.557617"/>
</g>
<g fill="rgb(0%, 0%, 0%)" fill-opacity="1">
<use xlink:href="#glyph-1-1" x="195.335938" y="278.990234"/>
<use xlink:href="#glyph-1-2" x="202.335938" y="278.990234"/>
<use xlink:href="#glyph-1-3" x="208.335938" y="278.990234"/>
<use xlink:href="#glyph-1-4" x="214.335938" y="278.990234"/>
<use xlink:href="#glyph-1-5" x="216.335938" y="278.990234"/>
<use xlink:href="#glyph-1-6" x="222.335938" y="278.990234"/>
<use xlink:href="#glyph-1-7" x="228.335938" y="278.990234"/>
<use xlink:href="#glyph-1-6" x="230.335938" y="278.990234"/>
<use xlink:href="#glyph-1-8" x="236.335938" y="278.990234"/>
<use xlink:href="#glyph-1-9" x="239.335938" y="278.990234"/>
<use xlink:href="#glyph-1-10" x="246.335938" y="278.990234"/>
<use xlink:href="#glyph-1-3" x="249.335938" y="278.990234"/>
<use xlink:href="#glyph-1-11" x="255.335938" y="278.990234"/>
<use xlink:href="#glyph-1-12" x="261.335938" y="278.990234"/>
</g>
<g fill="rgb(0%, 0%, 0%)" fill-opacity="1">
<use xlink:href="#glyph-2-1" x="12.951172" y="142.664062"/>
<use xlink:href="#glyph-2-2" x="12.951172" y="138.664062"/>
<use xlink:href="#glyph-2-3" x="12.951172" y="129.664062"/>
<use xlink:href="#glyph-2-4" x="12.951172" y="123.664062"/>
</g>
</svg>
